<?xml version="1.0" standalone="no"?>
<!DOCTYPE svg PUBLIC "-//W3C//DTD SVG 20010904//EN"
 "http://www.w3.org/TR/2001/REC-SVG-20010904/DTD/svg10.dtd">
<svg version="1.0" xmlns="http://www.w3.org/2000/svg"
 width="666.000000pt" height="666.000000pt" viewBox="0 0 666.000000 666.000000"
 preserveAspectRatio="xMidYMid meet">
<metadata>
Created by potrace 1.14, written by Peter Selinger 2001-2017
</metadata>
<g transform="translate(0.000000,666.000000) scale(0.100000,-0.100000)"
fill="#000000" stroke="none">
<path d="M2272 4820 c-321 -45 -537 -250 -616 -585 -26 -110 -27 -113 -42
-245 -20 -178 -20 -1232 0 -1410 15 -132 16 -135 42 -245 66 -279 228 -470
464 -548 94 -32 168 -41 315 -40 221 1 350 35 479 127 138 99 224 236 275 441
26 102 39 209 47 390 l7 145 -222 0 -221 0 0 -147 c0 -358 -76 -535 -254 -593
-62 -20 -191 -15 -258 10 -131 49 -209 178 -243 405 -21 143 -22 1420 0 1571
29 209 94 308 235 360 69 25 239 23 310 -5 149 -57 210 -203 210 -502 l0 -119
220 0 221 0 -6 78 c-14 182 -28 283 -51 372 -76 291 -259 473 -534 530 -73 15
-299 21 -378 10z"/>
<path d="M821 4790 c-4 -3 -25 -36 -45 -75 -21 -38 -54 -99 -73 -135 -35 -63
-59 -108 -100 -180 -17 -31 -60 -108 -158 -285 -15 -27 -41 -75 -58 -105 -17
-30 -47 -86 -69 -123 -21 -38 -38 -71 -38 -74 0 -3 -8 -17 -18 -31 -11 -15
-43 -72 -72 -127 -29 -55 -56 -104 -60 -110 -30 -39 -130 -241 -130 -261 0
-14 11 -45 25 -70 14 -24 37 -65 51 -91 15 -27 39 -70 54 -98 15 -27 39 -71
54 -97 28 -51 67 -121 99 -178 11 -19 33 -59 48 -87 107 -196 149 -274 189
-343 20 -36 52 -92 70 -125 39 -71 78 -144 122 -222 17 -32 48 -89 69 -128
l38 -70 210 -3 c116 -1 211 1 211 5 0 5 -23 48 -50 97 -28 49 -50 91 -50 93 0
3 -8 17 -18 31 -11 15 -35 56 -54 92 -37 69 -77 143 -130 238 -17 31 -53 98
-81 147 -27 50 -57 104 -67 120 -10 17 -39 71 -65 120 -27 50 -51 95 -55 100
-4 6 -23 39 -42 75 -67 124 -95 176 -157 283 -33 60 -61 110 -61 112 0 2 26
50 58 107 62 110 103 183 160 288 19 36 38 70 42 75 4 6 31 55 60 110 29 55
56 105 60 110 4 6 29 51 55 100 26 50 55 101 64 115 10 14 32 54 51 90 18 36
42 81 53 100 11 19 38 69 60 110 22 41 46 82 53 91 8 8 14 19 14 22 0 4 23 47
50 95 28 48 50 90 50 93 0 6 -410 5 -419 -1z"/>
<path d="M3527 4794 c-4 -4 -7 -76 -7 -161 l0 -153 434 0 435 0 -9 -27 c-7
-24 -33 -86 -140 -345 -11 -27 -30 -72 -41 -100 -12 -29 -30 -72 -40 -95 -11
-24 -19 -47 -19 -51 0 -5 -6 -22 -14 -38 -15 -29 -81 -187 -116 -274 -21 -54
-139 -344 -175 -432 -15 -35 -35 -82 -46 -105 -10 -24 -19 -47 -19 -51 0 -5
-6 -22 -14 -38 -13 -26 -103 -244 -146 -354 -44 -113 -133 -328 -146 -351 -7
-15 -20 -44 -28 -65 -7 -22 -23 -63 -35 -91 -12 -29 -29 -74 -40 -100 -10 -27
-32 -81 -49 -120 l-30 -73 769 0 769 0 0 160 0 160 -472 1 c-260 1 -480 0
-488 -1 -8 -1 -18 -7 -22 -13 -19 -30 -11 -9 89 233 19 47 43 105 53 130 10
25 46 113 80 195 34 83 71 171 81 198 10 26 28 70 39 97 11 27 29 71 39 98 24
60 93 227 113 272 28 64 41 95 58 140 19 47 124 306 183 450 75 182 200 487
217 530 10 25 47 117 83 204 36 88 64 162 62 165 -5 9 -1399 14 -1408 5z m964
-71 c-12 -20 -14 -14 -5 12 4 9 9 14 11 11 3 -2 0 -13 -6 -23z m-690 -2740
c-12 -20 -14 -14 -5 12 4 9 9 14 11 11 3 -2 0 -13 -6 -23z"/>
<path d="M5311 4788 c0 -7 13 -35 29 -63 16 -27 40 -70 53 -95 13 -25 34 -63
47 -85 13 -22 34 -60 48 -85 52 -94 81 -147 107 -195 16 -27 44 -79 63 -115
19 -36 59 -107 89 -158 29 -52 53 -95 53 -97 0 -2 15 -30 34 -62 18 -32 49
-87 68 -123 50 -91 91 -167 165 -299 34 -62 63 -119 63 -126 0 -8 -28 -64 -63
-127 -69 -122 -113 -202 -159 -288 -17 -30 -47 -84 -68 -120 -37 -65 -72 -129
-138 -250 -19 -36 -38 -69 -42 -75 -4 -5 -29 -50 -55 -100 -26 -49 -65 -121
-86 -158 -22 -38 -39 -71 -39 -73 0 -2 -20 -38 -45 -80 -25 -41 -45 -77 -45
-79 0 -2 -18 -35 -40 -74 -22 -39 -40 -75 -40 -81 0 -6 72 -10 208 -10 l208 0
32 63 c18 34 43 80 56 102 12 22 38 69 58 105 19 36 44 81 55 100 11 19 36 64
55 100 40 73 76 137 114 208 47 84 81 146 106 192 14 25 36 63 48 85 24 41 44
77 100 180 18 33 49 89 70 125 20 36 60 108 88 160 l51 95 -46 85 c-25 47 -66
123 -93 170 -26 47 -59 106 -74 133 -28 50 -66 119 -99 177 -11 19 -33 59 -48
88 -73 134 -88 160 -114 207 -15 28 -40 73 -55 100 -15 28 -40 73 -55 100 -15
28 -41 75 -58 105 -33 61 -100 181 -123 220 -7 14 -26 49 -41 78 l-27 52 -208
0 c-160 0 -208 -3 -207 -12z"/>
</g>
</svg>
